<svg width="39" height="13" viewBox="0 0 39 13" fill="none" xmlns="http://www.w3.org/2000/svg">
<path d="M0.24 10V4.12H1.8V10H0.24ZM3.18 5.8L6.6 10H4.644L1.8 6.58L3.18 5.8ZM3.996 6.58H0.24V5.02H3.996C5.256 5.02 5.28 3.16 3.996 3.16H0.24V1.6H3.996C7.428 1.6 7.404 6.58 3.996 6.58ZM7.08375 10L9.60375 1.6H11.2478L8.72775 10H7.08375ZM13.6478 10H12.0038L9.60375 1.6H11.2478L13.6478 10ZM20.8103 8.764C19.9943 9.58 18.9143 10 17.8463 10C16.7783 10 15.7103 9.58 14.8823 8.764C13.2382 7.12 13.2382 4.48 14.8823 2.836C15.7103 2.008 16.7783 1.6 17.8463 1.6C18.9143 1.6 19.9943 2.008 20.8103 2.836L19.7183 3.928C19.2023 3.412 18.5303 3.148 17.8463 3.148C17.1743 3.148 16.4902 3.412 15.9743 3.928C14.9423 4.96 14.9423 6.64 15.9743 7.672C16.4902 8.188 17.1623 8.44 17.8463 8.44C18.3383 8.44 18.8183 8.308 19.2503 8.044V6.58H17.8463V5.02H20.8103V8.764ZM27.6469 1.6V6.82C27.6469 8.572 26.2189 10 24.4669 10C22.7149 10 21.2869 8.572 21.2869 6.82V1.6H22.8469V6.82C22.8469 7.72 23.5669 8.44 24.4669 8.44C25.3669 8.44 26.0869 7.72 26.0869 6.82V1.6H27.6469ZM28.1306 10V1.6H29.6906V10H28.1306ZM28.1306 8.44H33.4106V10H28.1306V8.44Z" fill="black"/>
<circle cx="33.5" cy="2.5" r="1.5" fill="#E1FF00"/>
</svg>
