<svg width="50" height="77" viewBox="0 0 50 77" fill="none" xmlns="http://www.w3.org/2000/svg">
<path d="M49.9723 48.0393C50.0076 48.6657 49.7877 49.298 49.4176 49.8046C34.2188 70.6111 33.4402 56.3577 26.0909 49.8658C25.4634 49.3115 24.5347 49.3054 23.9019 49.8537C16.821 55.9895 13.8843 70.5681 0.48007 49.7535C0.173494 49.2775 -0.0061216 48.7033 0.0212812 48.1377C0.614929 35.8853 13.4954 16.9446 21.9038 4.58027C22.0991 4.2931 22.2919 4.00947 22.4822 3.72955C23.6856 1.95907 26.3164 1.95777 27.5212 3.72728C27.5887 3.82642 27.6567 3.92622 27.7251 4.02666C35.5988 15.5901 49.2755 35.6756 49.9723 48.0393Z" fill="white"/>
<circle cx="25" cy="71" r="6" fill="#6FFF8E"/>
</svg>
