<svg width="1121" height="349" viewBox="0 0 1121 349" fill="none" xmlns="http://www.w3.org/2000/svg">
<path d="M39.5 64.0002C31.9 61.6002 10.3333 63.0002 0.5 64.0002V0.5H1120V133C1115.83 135.167 1106.3 138.6 1101.5 135C1095.5 130.5 1083.5 123.5 1083 102.5C1082.5 81.5 1076.5 67.5 1068 61.5C1059.5 55.5 1049 61.5 1044 61.5C1039 61.5 1026.5 80.5 1034.5 104.5C1042.5 128.5 1037.5 165 1032 179.5C1026.5 194 1009.5 221.5 975 210.5C940.5 199.5 952.5 189 946.5 176.5C940.5 164 954.5 133 958.5 110.5C962.5 88 955 66 949.5 58.5C944 51 915 37.5 906 50.5C897 63.5 894.5 59 884 110.5C873.5 162 852.5 162.5 843 165C833.5 167.5 815 169 801.5 133C788 97 809.5 70 779.5 50.5C749.5 31 735 46.5 721.5 50.5C708 54.5 693 86.5 701 113.5C709 140.5 703 161.5 701 172C699 182.5 690.5 202.5 666 204.5C646.4 206.1 634.167 183.5 630.5 172C629.333 167.667 627.1 151.9 627.5 123.5C627.9 95.1 613.333 76 606 70C593.5 62.8333 563.3 52.8 542.5 70C516.5 91.5 518 97 508.5 126.5C500.9 150.1 516 190 524.5 207C534.333 228 550.5 277.9 536.5 309.5C519.215 348.515 498.027 348.506 484.019 348.5L483.5 348.5C469.5 348.5 434 326 430 285C426 244 435 228 438 207C441 186 458.5 156.5 464 113.5C468.4 79.1 456.167 51.8333 449.5 42.5C441.833 32 422.7 11 407.5 11C394.5 18 387 11 378 11C369 11 359 19.5 348.5 32C338 44.5 337 62.5 334.5 76C332 89.5 339.5 116.5 340 120C340.5 123.5 352.5 166 354 183.5C355.5 201 357.5 207.5 345 220.5C332.5 233.5 314 225.5 295 215C276 204.5 275 178 272.5 174C270 170 272 121 269.5 106.5C267 92 269.5 93.5002 257 73.5002C247 57.5002 230.833 56.8336 224 58.5002C218.333 59.3336 205.6 64.4002 200 78.0002C193 95.0002 192.5 105 196.5 129.5C200.5 154 205.5 169.5 200 197C195.6 219 174.833 237.167 165 243.5C152.167 250.5 120.1 261.1 94.5 247.5C62.5 230.5 60 221 51.5 202.5C43 184 47.5 164 47.5 161C47.5 158 57 128.5 60 123C63 117.5 66 85.5002 63 80.0002C60 74.5002 49 67.0002 39.5 64.0002Z" fill="white" stroke="white"/>
<circle cx="324" cy="318" r="14" fill="white" stroke="white"/>
<circle cx="676.5" cy="237.5" r="10.5" fill="white" stroke="white"/>
<circle cx="1101" cy="193" r="18" fill="white" stroke="white"/>
</svg>
